<svg xmlns="http://www.w3.org/2000/svg" width="141" height="117" viewBox="0 0 141 117">
    <defs>
        <linearGradient id="qhllsxi10a" x1="18.031%" x2="84.166%" y1="49.172%" y2="50.769%">
            <stop offset="0%" stop-color="#FFF400"/>
            <stop offset="100%" stop-color="#FFBF00"/>
        </linearGradient>
    </defs>
    <g fill="none" fill-rule="evenodd">
        <g>
            <g>
                <g>
                    <g transform="translate(-27 -216) translate(0 192) translate(27 24) translate(0 34.64)">
                        <ellipse cx="70" cy="70.862" fill="url(#qhllsxi10a)" rx="70" ry="10.464"/>
                        <g fill-rule="nonzero">
                            <path fill="#FB3030" d="M16.253 17.099L14.124 17.099 14.124 5.741 4.707 2.566 5.374 0.501 16.253 4.167z" transform="translate(53.025)"/>
                            <path fill="#BB1B1B" d="M14.562 16.685L14.562 5.248 4.875 1.944 4.707 2.465 14.124 5.663 14.124 17.099 16.253 17.099 16.253 16.685z" transform="translate(53.025)"/>
                            <g fill="#F66" opacity=".8">
                                <path d="M0.268 0.018L0.031 0.753 10.778 4.393 10.778 17.212 11.485 17.212 11.485 3.816z" transform="translate(53.025) translate(5.428 -.22)"/>
                            </g>
                            <path fill="#FFF" d="M19.912 17.809L33.573 16.242 32.817 14.212 19.912 14.212 19.811 14.212 6.906 14.212 6.15 16.242 19.811 17.809 19.811 17.82 19.861 17.815 19.912 17.82z" transform="translate(53.025)"/>
                            <path fill="#F1F1F1" d="M6.465 15.655L6.15 16.41 19.811 17.81 19.811 17.82 19.861 17.815 19.912 17.82 19.912 17.81 33.573 16.41 33.258 15.655z" transform="translate(53.025)"/>
                            <path fill="#FB3030" d="M35.191 70.501L38.624 19.985 1.099 19.985 4.533 70.501z" transform="translate(53.025)"/>
                            <g fill="#C31E1E" opacity=".65">
                                <path d="M34.694 50.405L38.182 0.068 0.06 0.068 3.55 50.405z" transform="translate(53.025) translate(1.099 19.985)"/>
                            </g>
                            <path fill="#FB5656" d="M35.561 70.501L38.624 25.037 1.82 25.037 4.883 70.501z" transform="translate(53.025)"/>
                            <g fill="#FB3030" opacity=".7">
                                <path d="M34.328 45.352L37.436 0.079 0.086 0.079 3.194 45.352z" transform="translate(53.025) translate(1.099 25.037)"/>
                            </g>
                            <path fill="#FB3030" d="M13.367 70.501L12.289 25.037 1.82 25.037 4.856 70.501zM35.588 70.501L38.624 25.037 28.157 25.037 27.078 70.501z" transform="translate(53.025)"/>
                            <g fill="#C31E1E" opacity=".78">
                                <path d="M4.92 50.405L1.842.068.06.068 3.55 50.405zM34.694 50.405L38.182.068 36.402.068 33.324 50.405z" transform="translate(53.025) translate(1.099 19.985)"/>
                            </g>
                            <path fill="#E9E9E9" d="M1.099 18.971s16.278-2.59 38.247 0l-5.83 1.577-23.766.159-8.651-1.736z" transform="translate(53.025)"/>
                            <path fill="#F1F1F1" d="M40.068 23.594s-.139-5.697-3.182-7.217H2.838c-3.045 1.52-3.183 7.217-3.183 7.217l20.206-.088 20.207.088z" transform="translate(53.025)"/>
                            <path fill="#FFF" d="M37.181 23.594s-.116-5.697-2.674-7.217H5.937c-2.557 1.52-2.674 7.217-2.674 7.217l16.957-.088 16.961.088z" transform="translate(53.025)"/>
                            <g fill="#FFF" opacity=".24">
                                <path d="M5.003.081H1.454C1.046.09.66.254.39.537c-.27.282-.4.657-.357 1.031.056.69.673 1.226 1.422 1.236h3.55c.799-.02 1.436-.624 1.436-1.361C6.44.705 5.803.102 5.003.08z" transform="translate(53.025) translate(8.315 27.202)"/>
                            </g>
                            <g fill="#FFF" opacity=".24">
                                <path d="M1.597.144C1.21-.08.745.088.454.426-.128 1.2-.07 2.449.565 3.123c.555.607 1.513.404 2.009-.27.232-.373.262-.809.232-1.244C2.723.897 2.257.156 1.596.144z" transform="translate(53.025) translate(4.707 26.48)"/>
                            </g>
                            <path fill="#FFF" d="M3.193 18.542c.223-.506.488-.989.792-1.443H2.723c-.334.456-.636.939-.903 1.443h1.373zM1.94 18.542c-.442.906-.726 1.882-.841 2.887h1.344c.179-.988.454-1.955.82-2.887H1.94z" transform="translate(53.025)"/>
                        </g>
                    </g>
                </g>
            </g>
        </g>
    </g>
</svg>
