<svg xmlns="http://www.w3.org/2000/svg" width="141" height="117" viewBox="0 0 141 117">
    <defs>
        <linearGradient id="5kjwwjs8za" x1="18.031%" x2="84.166%" y1="49.172%" y2="50.769%">
            <stop offset="0%" stop-color="#FFF400"/>
            <stop offset="100%" stop-color="#FFBF00"/>
        </linearGradient>
    </defs>
    <g fill="none" fill-rule="evenodd">
        <g>
            <g>
                <g>
                    <g transform="translate(-27 -736) translate(0 712) translate(0 24) translate(27)">
                        <ellipse cx="70" cy="105.501" fill="url(#5kjwwjs8za)" rx="70" ry="10.464"/>
                        <g fill-rule="nonzero" transform="translate(36.427)">
                            <path fill="#04998E" d="M22.026 96.523c-.48-.07-.962-.144-1.443-.222.48.128.96.247 1.443.358v-.136z"/>
                            <path fill="#FBFDE5" d="M47.922 3.39c.167-.01.335.017.493.079.139.074.275.155.406.244.064.048.124.102.178.163.084.08.174.154.269.22.083.053.169.098.25.157.087.066.18.124.278.172.152.065.307.12.466.162.139.048.274.106.409.16.057.017.116.029.175.036.116.023.219.068.332.09.36.055.724.074 1.087.06h1.052c.088 0 .165-.028.25-.03.058.003.116-.001.173-.012.06-.016.118-.036.175-.061.066-.024.135-.043.201-.067.067-.024.126-.076.198-.096.138-.053.28-.091.426-.115.127-.01.26 0 .387 0 .117-.013.235-.003.35.031.113.06.222.132.324.211.104.07.153.157.285.164.131.006.263.052.396.054.133.003.266 0 .397 0 .1-.006.2-.006.3 0 .18.023.355.077.519.16.115.077.225.164.33.259.112.082.215.18.306.29.076.087.125.193.205.278.037.039.07.081.101.126.047.066.117.118.157.185.086.126-.009.33-.108.42-.169.158-.404.141-.614.172-.105.015-.212.024-.317.039-.074.013-.147.038-.221.047-.161.017-.332 0-.493 0h-.686c-.586-.017-1.17-.081-1.748-.194l-2.347-.37c-.721-.112-1.449-.181-2.169-.304-.276-.04-.55-.105-.816-.193-.093-.053-.191-.095-.292-.127l-.176-.03c-.055-.016-.106-.044-.15-.083-.131-.088-.263-.17-.391-.266-.128-.097-.223-.165-.333-.253-.104-.084-.202-.174-.294-.272-.117-.112-.32-.205-.35-.394-.026-.148.01-.3.1-.417.07-.075.173-.226.53-.696z"/>
                            <path fill="#FFF076" d="M50.892 3.878c.337-.82 1.234-.409 1.862-.207.077.015.154.027.233.037.06.006.12.008.181.006.304.019.608-.136.912-.187.06-.01.121-.016.182-.016.212.018.411.103.562.24.05.045.096.094.135.147.233.358.415.907.078 1.249-.224.172-.485.206-.797.222l-.167.021c-.052.007-.145.016-.216.02-.07.005-.14 0-.208 0-.067 0-.116.022-.173.03l-.176.023c-.16.02-.32.027-.48.044-.104.012-.205.035-.31.045h-.15c-.05 0-.076 0-.248-.206-.216-.274-.45-.537-.698-.787l-.14-.155c-.054-.154-.165-.222-.264-.33-.04-.059-.083-.122-.118-.196z"/>
                            <path fill="#FBFDE5" d="M25.635 4.859c.028-.109.075-.212.138-.306.05-.101.103-.194.161-.291.023-.037.037-.08.062-.115.042-.064.101-.115.149-.179.085-.133.188-.254.307-.36.06-.053.133-.09.213-.103.105-.01.215 0 .32 0 .203 0 .41.009.613 0 .185-.007.23-.154.33-.278.11-.149.25-.274.412-.37.2-.12.43-.187.666-.191h.265c.136 0 .262.032.397.045.1.002.2.023.292.06.073.039.142.084.207.135.153.086.284.204.383.345.094.176.26.305.458.354.214.06.452 0 .67.036.185.046.353.141.484.275.058.06.107.127.145.2.04.06.088.115.126.176.083.111.157.23.22.353.112.263.177.542.19.826.01.3.032.616-.105.89-.086.196-.217.37-.382.51-.091.065-.206.114-.303.17-.098.055-.198.121-.301.172-.304.149-.623.267-.952.352-.4.098-.811.148-1.224.149-.44.008-.878 0-1.317 0-.196.007-.392 0-.587-.022-.167-.03-.332-.072-.493-.126-.298-.084-.59-.186-.876-.306-.112-.047-.198-.12-.668-2.401z"/>
                            <path fill="#FFF8C4" d="M63.896 7.552c.186-.337.657-.541 1.087-.556.057.004.114.012.17.024.295.073.56.22.765.422.032.04.068.076.11.108.108.095.261.14.413.12.257-.043.52-.05.78-.022.074.01.147.024.219.044.734.186.848 1.021.734 1.613 0 .138-.157.278-.334.38-.039.026-.08.05-.123.07-.13.064-.275.101-.424.109h-.299c-.133 0-.264.02-.397.018-.227 0-.446-.006-.673-.024-.096-.007-.193-.01-.289-.02-.143-.02-.282-.056-.415-.109-.106-.039-.211-.079-.319-.117-.097-.025-.19-.061-.277-.108-.043-.03-.08-.067-.107-.108-.009-.011-.024-.025-.04-.262 0-.059-.008-.132-.017-.217.004-.098-.015-.196-.055-.287-.019-.047-.042-.092-.068-.136-.17-.29-.49-.464-.452-.816 0-.042.004-.084.011-.126z"/>
                            <path fill="#FBFDE5" d="M41.533 3.543c-.18-.827.798-.906 1.238-1.252.082-.051.157-.1.232-.145.076-.045.15-.086.226-.122.08-.031.163-.054.248-.067.26-.043.524.02.745.175.08.049.158.104.236.16.155.113.307.23.45.323.054.027.11.05.168.066.058.017.118.03.178.036.506.04.976-.433 1.496-.245.067.025.132.06.192.101.36.246.59.688.698 1.132.218.788.146 1.536.362 2.27.008.086.004.172-.012.256-.018.088-.05.17-.094.246-.045.08-.1.154-.164.218-.077.078-.162.146-.254.203-.083.088-.177.166-.278.23-.096.053-.188.094-.28.156-.203.128-.423.223-.652.282-.265.078-.537.124-.811.138-.17.018-.342.018-.513 0-.18-.039-.357-.09-.53-.152-.142-.048-.298-.073-.436-.123-.206-.081-.4-.196-.574-.34-.098-.082-.19-.174-.283-.261-.094-.087-.133-.172-.72-2.011l-.065-.204c-.12-.39-.374-.665-.676-.917-.042-.053-.086-.105-.127-.153z"/>
                            <path fill="#FFF076" d="M41.51 3.256c.05-.147.144-.274.269-.361.038-.028.077-.053.119-.075.464-.245.998-.245 1.193.348l.083.086c.055.053.114.1.178.14.08.05.175.064.265.044.044-.01.087-.027.127-.048.256-.271.593-.389.935-.115.03.024.058.05.083.08.121.145.197.325.217.515.015.057.033.114.051.17l.057.168c.04.105.043.22.007.326-.065.148-.152.283-.257.402-.206.227-.457.406-.735.525-.205.09-.431.114-.65.07-.27-.051-.537-.12-.798-.207-.09-.03-.18-.058-.272-.079-.072-.012-.144-.03-.214-.052-.077-.021-.15-.057-.215-.105-.065-.057-.118-.148-.194-.98 0-.044-.008-.09-.013-.137.045-.226-.108-.383-.192-.584-.017-.043-.031-.086-.043-.13z"/>
                            <path fill="#FDF39C" d="M37.903 2.987c.178-.624.773-1.053 1.446-1.043.062.004.124.016.183.036.177.073.327.195.432.35.048.065.092.132.132.202.13.244.13.619.579.584.057-.003.113-.01.168-.022.057-.01.122-.026.176-.041.055-.015.145-.039.215-.055.219-.083.466-.054.658.077.05.04.091.09.12.146.156.3.312.675.156.975-.237.433-.428.889-.57 1.359-.035.06-.074.117-.11.18-.073.143-.188.262-.33.343-.086.044-.174.083-.265.117-.093.03-.19.048-.287.055-.202.018-.404.026-.607.023h-.121c-.075-.001-.15-.019-.216-.051-.14-.059-.272-.13-.397-.213-.089-.042-.174-.092-.253-.15-.061-.048-.108-.111-.136-.183-.036-.083-.062-.17-.077-.259-.01-.083-.054-.163-.073-.248-.03-.097-.07-.191-.12-.28-.029-.06-.071-.109-.096-.17-.01-.03-.02-.06-.027-.092-.011-.045-.03-.116-.06-.224-.025-.06-.048-.124-.069-.188-.02-.064-.043-.13-.062-.197-.06-.298-.169-.585-.321-.85l-.068-.18zM45.84 4.603c.036-.063.075-.126.105-.191.03-.066.048-.156.09-.226.04-.057.084-.112.132-.165.064-.091.143-.174.233-.246.243-.182.427-.327.763-.343.082-.007.165 0 .243.022.235.072.407.363.621.487.243.141.545.212.79.032.621-.455 1.412-.926 2.067-.24.161.18.297.378.404.588.099.179.28.394.32.59.008.084.008.168 0 .252.016.123-.022.247-.106.346-.15.116-.317.213-.497.286-.103.056-.21.105-.32.147-.237.074-.481.122-.73.144-.196.03-.393.048-.59.058-.136-.002-.271.005-.405.02-.279.045-.553.076-.834.1-.322.03-.648.09-2.285-1.66z"/>
                            <path fill="#FBFDE5" d="M57.399 5.838c.028-.037.06-.071.097-.102.162-.177.355-.328.57-.447.395-.186.72.078 1.1 0 .186-.06.353-.162.485-.296.08-.07.18-.115.289-.133.596-.112 1.232.095 1.336.7.059.353.252.57.57.765.572.35.82.91.334 1.454-.071.09-.159.168-.259.23-.178.099-.367.177-.565.235-.41.128-.838.193-1.27.194-.18.006-.36-.011-.536-.05-.329-.087-.646-.216-.971-.325-.158-.052-.317-.102-.48-.142-.085-.015-.169-.034-.251-.058-.026-.009-.052-.02-.075-.034-.107-.076-.109-.37-.13-.475-.064-.335-.12-.67-.186-1.006-.022-.112-.051-.236-.066-.353-.003-.091-.01-.127.008-.157z"/>
                            <path fill="#FFF076" d="M58.866 7.435c-.065-.047-.026-.214 0-.275.063-.158.122-.373.266-.486.168-.113.356-.196.555-.246.13-.046.272-.061.41-.043.113.02.222.059.32.114.056.033.122.053.176.086.045.035.099.058.156.066.284.033.505-.07.733-.212.097-.05.18-.118.245-.202.212-.324.235-.558.69-.65.197-.046.403-.046.6 0 .2.048.37.168.474.333.122.205.108.458.216.672.028.056.064.109.107.156.066.095.182.149.302.14.071-.013.144-.024.216-.031.53-.115.962.363.962.84 0 .074.078.148.17.194.034.028.07.053.11.073.078.042.166.065.256.068h.18c.176-.01.343-.018.46.114.323.318.391.794.17 1.18-.007.046-.02.091-.038.134-.055.127-.154.24-.212.366-.059.115-.126.227-.2.335-.087.141-.173.282-.272.416-.19.269-.362.549-.513.838-.063.133-.148.256-.252.363-.117.09-.25.16-.395.205-.178.059-.377.036-.563.05-.29.021-.581.012-.872.012h-.475c-.159-.01-.311-.06-.44-.146-.189-.097-.365-.212-.526-.344-.109-.092-.205-.192-.317-.282-.271-.19-.557-.36-.855-.51-.122-.074-.253-.152-.366-.237-.087-.052-.168-.11-.244-.175-.14-.14-.328-.264-.42-.438-.038-.073-.08-.141-.115-.215-.036-.073-.064-.184-.7-2.263z"/>
                            <path fill="#FAC032" d="M61.009 9.071c-.024-.016-.01-.072 0-.093.017-.06.051-.116.098-.163.062-.038.13-.066.204-.082.048-.016.1-.021.152-.015.043.007.086.02.125.04.02.01.043.017.065.028.016.012.036.02.057.022.098.007.194-.019.27-.071.035-.017.066-.04.089-.067.078-.107.086-.189.25-.22.073-.015.15-.015.223 0 .072.016.134.054.174.107.045.07.04.155.08.227.09.162.295.125.464.107.117-.009.18.205.267.268.125.075.229.174.303.288.022.038.038.079.047.12.007.043.007.087 0 .13-.02.059-.05.116-.09.167-.023.037-.048.073-.075.107-.032.048-.065.095-.101.14-.07.09-.133.185-.189.282-.023.045-.054.086-.092.122-.044.03-.093.054-.147.07-.068.012-.138.018-.207.015-.108.008-.215 0-.322 0h-.175c-.058-.003-.114-.02-.162-.049-.07-.032-.135-.072-.194-.117-.039-.031-.075-.065-.116-.095-.1-.064-.205-.12-.314-.171-.048-.026-.094-.052-.138-.08-.031-.018-.061-.038-.089-.06-.06-.042-.112-.091-.155-.147-.014-.024-.029-.047-.042-.071-.014-.025-.027-.04-.26-.739z"/>
                            <path fill="#FFF8C4" d="M32.268 3.173c.139-.397.375-.753.686-1.033.1-.094.206-.185.316-.269.25-.22.54-.367.79-.588.435-.439.689-1.026 1.27-1.319 1.269-.66 2.43.587 3.177 1.457.091.114.175.234.25.36.232.376.348.812.333 1.255-.006.143-.024.285-.055.424.067.756.538 1.598.175 2.295-.362.66-1.16.842-1.834 1.082-.073.019-.148.037-.226.053-.229.052-.461.082-.696.091-.193.02-.387.02-.58 0-.203-.041-.404-.095-.6-.16-.162-.05-.34-.077-.496-.136-.233-.085-.452-.206-.65-.357-.113-.087-.215-.183-.32-.275-.034-.03-.061-.064-.081-.104-.03-.092-.063-.183-.103-.27-.039-.138-.114-.262-.218-.359-.246-.155-.48-.33-.699-.521-.104-.093-.2-.196-.286-.306-.248-.308-.394-.712-.206-1.093.02-.081.037-.155.053-.227z"/>
                            <path fill="#FFF076" d="M46.581 3.985c.04-.354.166-.694.37-.991.162-.244.423-.412.72-.464.216-.028.45.024.643-.073.246-.118.312-.418.409-.665.35-.894 2.12-2.045 2.563-.62.081.26.133.546.34.744.237.237.616.287.878.49.681.53.803 1.254-.03 1.714-.52.286-.471.58-.565 1.086-.225 1.216-2.386 1.437-3.016.439-.345-.544-.47-.619-1.147-.634-.432-.01-.932.01-1.132-.443-.035-.091-.053-.188-.051-.286 0-.1.005-.198.018-.297z"/>
                            <path fill="#FAC032" d="M49.459 3.972c.013-.133.055-.26.124-.371.054-.091.141-.155.24-.175.073.005.146-.004.216-.027.08-.045.107-.156.135-.249.118-.335.707-.767.855-.233.014.102.051.198.108.28.08.086.206.107.293.184.226.198.267.465-.01.641-.173.109-.157.22-.188.408-.076.456-.796.539-1.006.165-.115-.205-.156-.233-.383-.233-.143 0-.31 0-.377-.166-.011-.035-.017-.07-.017-.107.001-.04.004-.078.01-.117zM34.344 3.301c.056-.159.15-.3.275-.412.04-.038.082-.073.126-.106.105-.088.217-.147.315-.235.175-.176.277-.41.509-.53.508-.264.972.235 1.272.583.038.046.073.093.105.144.092.15.139.325.133.502-.002.057-.01.114-.023.17.027.302.216.636.07.917-.146.28-.464.337-.735.433l-.09.022c-.09.02-.184.032-.278.036-.077.008-.155.008-.233 0-.081-.016-.162-.038-.24-.065-.064-.02-.136-.03-.199-.054-.093-.034-.18-.082-.26-.142-.043-.035-.085-.073-.128-.106-.013-.012-.024-.026-.032-.042-.011-.036-.025-.071-.04-.106-.016-.055-.047-.104-.089-.143-.098-.063-.192-.134-.28-.212-.04-.037-.079-.078-.114-.122-.112-.116-.144-.288-.083-.438.005-.038.013-.067.019-.094z"/>
                            <path fill="#FBFDE5" d="M56.646 6.65c-.15-.747-.834-.94-1.411-1.113-.105-.054-.207-.114-.305-.18-.491-.325-.92-.77-1.458-1.035-.162-.066-.327-.12-.495-.162-.121-.027-.244-.044-.368-.05-.124-.005-.248.002-.371.021-.568.076-1.216.423-1.288 1.08-.145 1.003-.648 1.696-1.368 2.29-.048.077-.084.162-.107.251-.024.102-.031.208-.022.313.022.174.08.342.168.49.06.1.13.192.21.274.1.132.242.218.398.24 1.01.155 1.873.27 2.521 1.35.289.463.974-.04 1.251-.448.079-.101.155-.21.224-.32.218-.333.409-.695.578-.974.093-.102.204-.184.327-.24.785.02 1.688-.48 1.514-1.472.005-.103.004-.204.002-.316z"/>
                            <path fill="#FFF076" d="M46.626 9.668c-.047-.172-.068-.35-.063-.528.004-.161.034-.32.088-.472.051-.146.124-.284.216-.41.092-.127.2-.242.322-.343.09-.077.186-.145.289-.204.52-.344 1.233-.304 1.72-.671.563-.478.934-1.251 1.768-1.391.123-.032.247-.057.373-.075.506-.067 1.023 0 1.273.472.263.516.45 1.067.927 1.476.097.094.199.182.304.268.334.262.685.503 1.051.722.14.099.233.249.26.416.043.129.066.263.068.4.001.147-.021.294-.065.435-.263.956-1.2 1.507-2.035 2.026-.139.078-.287.138-.441.181-1.126.331-2.102-.479-2.963-1.066-.153-.074-.331-.08-.488-.015-.128.014-.256.028-.385.039-.259.026-.52.017-.778-.025-.45-.115-.863-.368-1.062-.77-.034-.061-.045-.202-.379-.465z"/>
                            <path fill="#FBFDE5" d="M29.969 5.268c-.072-.646.785-.72 1.093-1.053.624-.665 1.326-1.923 2.307-1.443.35.149.428.666.82.962.112.053.23.095.353.125l.425.149c.709.254 1.355.576.907 1.463-.035.124-.08.246-.133.364.032.125.078.245.138.36.058.108.121.217.185.328.377.665.729 1.372-.173 1.868-.09.084-.19.156-.299.216-.103.05-.203.088-.302.147-.22.12-.457.21-.703.265-.286.073-.58.117-.875.129-.183.017-.368.017-.552 0-.194-.037-.385-.085-.572-.144-.153-.045-.32-.068-.471-.115-.222-.078-.43-.188-.618-.325-.105-.077-.204-.163-.305-.245-.1-.082-.15-.174-.92-2.282l-.09-.243c-.03-.084-.063-.168-.1-.255-.036-.086-.075-.18-.115-.271z"/>
                            <path fill="#FFF8C4" d="M36.46 6.306c.013-.142.057-.28.128-.407.019-.064.059-.122.115-.163.07-.055.146-.1.228-.137.056-.016.114-.027.172-.034.062-.018.126-.032.19-.04.135 0 .318.04.392-.065.366-.447.99-.858 1.466-.482.367.31.77.517 1.123.791.07.08.134.166.198.235.05.044.093.093.128.147.025.05.047.1.066.153.03.091.045.187.073.278.031.096.048.195.05.295.005.119-.015.238-.061.349-.035.074-.076.146-.124.214-.064.076-.133.148-.208.215-.127.16-.265.313-.414.456-.19.167-.429.279-.685.322-.129.008-.258.008-.387 0h-.823c-.365.01-.723.01-1.628-2.127zM45.396 10.374c.386.641 1.083.557 1.674.496.114.01.229.026.342.05.562.114 1.11.361 1.693.405.17 0 .341-.013.51-.038.121-.022.24-.054.356-.097.116-.043.227-.098.333-.163.5-.288.983-.863.832-1.503-.032-.159-.053-.32-.064-.481-.136-.889.542-1.623.542-2.473 0-.501-.429-.927-.856-.888-.928.039-1.82.425-2.756.025l-.28-.075c-.093-.024-.187-.047-.282-.066-.82-.154-.82 1.043-.926 1.67-.032.193-.062.378-.094.542-.052.132-.127.252-.222.353-.736.285-1.401 1.102-.91 1.962l.108.281z"/>
                            <path fill="#FBFDE5" d="M38.624 6.566c.019-.359.174-.9.564-.9.716.03 1.053-.47 1.436-.907.076-.088.157-.17.243-.249.085-.07.178-.133.276-.187.1-.052.204-.095.312-.129 1.055-.373 1.836.55 2.343 1.394.078.154.351.23.508.385.122.153.351.345.272.575-.155.462-.155.922.147 1.316.064.12.122.232.181.348.278.582.394 1.164-.353 1.593-.09.087-.191.162-.3.224-.104.052-.202.092-.302.153-.22.124-.457.217-.703.275-.287.076-.58.12-.877.134-.184.017-.369.017-.553 0-.193-.038-.384-.087-.571-.149-.154-.046-.322-.07-.472-.12-.222-.078-.43-.19-.618-.33-.106-.08-.206-.17-.306-.255-.101-.085-.151-.18-.922-2.37l-.088-.253c-.03-.087-.065-.175-.1-.264-.035-.09-.077-.19-.117-.284z"/>
                            <path fill="#FFF076" d="M33.648 9.491c.044-.124.103-.243.176-.353.969-.74 1.765-1.458 2.091-2.693.05-.09.107-.178.17-.26.06-.085.128-.164.203-.236.088-.067.182-.127.28-.178.102-.052.208-.096.316-.132.356-.126.747-.115 1.095.032.095.05.185.109.27.173.408.447.909.802 1.467 1.04.135.063.272.117.41.18.421.076.82.247 1.164.5.113.084.22.176.32.275.355.365.658.78.62 1.31-.119.906-1.214.718-1.784 1.177-.379.302-.417.755-.59 1.13-.045.128-.091.253-.143.373-.158.353-.365.67-.746.84-.72.34-1.366-.265-1.9-.673-.119-.094-.247-.186-.37-.267-.115-.079-.236-.148-.363-.205-.103-.06-.207-.118-.313-.169-.107-.05-.217-.1-.329-.147-.112-.046-.252-.071-.382-.098-.744-.066-1.882-.331-1.722-1.31.014-.102.03-.203.06-.309zM52.4 9.664c-.048-.173-.069-.35-.064-.529.005-.16.034-.319.087-.47.052-.147.125-.284.217-.41.164-.22.372-.405.61-.545.52-.344 1.232-.303 1.72-.67.562-.48.933-1.252 1.767-1.393.122-.031.246-.056.372-.073.505-.068 1.021.006 1.27.472.263.515.451 1.067.935 1.476.095.093.197.182.303.268.334.262.685.503 1.05.72.14.1.234.25.26.418.044.129.067.263.068.399.002.147-.02.294-.065.435-.263.957-1.2 1.51-2.033 2.028-.14.077-.287.137-.44.18-1.125.331-2.101-.478-2.961-1.066-.153-.073-.33-.079-.488-.014-.128.013-.257.027-.385.037-.26.027-.52.02-.777-.024-.45-.114-.862-.367-1.061-.77-.041-.064-.052-.205-.386-.47z"/>
                            <path fill="#FBFDE5" d="M43.064 6.448c-.271-.444.006-.848.337-1.19.055-.057.112-.108.167-.166.113-.108.219-.245.338-.376.058-.066.112-.132.18-.193.277-.3.82-.577 1.18-.3.289.21.506.382.868.418.072.019.143.04.211.06.347.109.655.274.834.6.18.326.181.695.505.901.052.045.104.087.15.131.1.092.16.218.165.352.009.121.009.243 0 .364-.016.188-.112.287-.238.421-.053.06-.098.125-.153.182-.109.096-.225.183-.349.26-.093.068-.18.145-.268.217-.098.076-.202.144-.312.202-.036.02-.064.048-.102.064-.079.024-.16.037-.243.04-.094.004-.187.004-.281 0-.192.009-.384.004-.576-.016-.177-.028-.35-.083-.525-.123-.236-.054-.466-.121-.7-.182-.244-.047-.481-.12-.708-.216-.057-.028-.109-.065-.153-.109-.025-.031-.04-.069-.044-.108-.042-.12-.068-.247-.076-.374l-.017-.192c.029-.216-.08-.351-.145-.523-.016-.047-.03-.093-.045-.144z"/>
                            <path fill="#FFF8C4" d="M23.47 5.207c.014-.168.058-.33.129-.479.018-.076.058-.143.114-.192.07-.064.146-.119.228-.161.056-.02.114-.033.172-.04.062-.022.125-.038.19-.047.147-.008.302.035.42-.086.214-.219.296-.537.572-.685.152-.08.318-.123.487-.126.124 0 .245-.028.342.068.046.047.125.07.162.127.038.055.04.108.07.157.03.05.063.097.098.142.043.054.081.117.127.168.132.151.303.205.467.295.163.09.307.341.434.505.05.051.093.11.128.173.026.058.048.118.066.18.03.107.045.22.073.327.031.112.048.229.05.347.006.14-.015.28-.061.41-.035.088-.076.172-.123.253-.064.089-.134.173-.208.252-.127.189-.266.368-.414.537-.191.196-.429.327-.685.379-.129.008-.258.008-.387 0h-.823c-.366.01-.729.01-1.628-2.504zM35.761 3.4c-.138-.022-.28-.015-.415.019-.127.031-.248.083-.359.152-.436.267-.754.754-1.144 1.073-.079.064-.16.126-.239.189-.338.238-.649.51-.928.811-.108.145-.206.296-.294.453-.059.114-.108.233-.148.354-.04.123-.067.249-.083.376-.086.58.069 1.32.678 1.556.925.396 1.452 1.073 1.824 1.941.06.068.132.125.213.17.09.048.19.083.292.1.175.022.352.007.52-.045.112-.034.22-.081.321-.141.153-.067.274-.187.338-.338.428-.966.779-1.8 1.997-2.177.525-.17.24-.98-.084-1.36-.075-.104-.157-.206-.239-.307-.064-.075-.131-.15-.2-.221-.068-.072-.136-.144-.203-.212-.137-.136-.368-.284-.406-.508-.154-.596.153-1.266-.5-1.712-.191-.15-.422-.116-.642-.116-.094-.022-.194-.044-.299-.058z"/>
                            <path fill="#FBFDE5" d="M25.635 6.582c.018-.357.173-.896.564-.896.859.038 1.171-.688 1.674-1.15.096-.089.202-.165.316-.229.686-.377 1.566-.218 1.893.495.048.109.083.222.103.34.385.582 1.361.773 1.206 1.614-.03.27.024.543.157.783.06.112.121.225.186.339.378.688.729 1.418-.173 1.931-.09.087-.19.161-.3.223-.104.052-.202.091-.302.152-.22.124-.457.216-.703.274-.287.075-.58.12-.877.133-.184.017-.369.017-.553 0-.193-.038-.384-.087-.571-.148-.154-.046-.322-.07-.472-.119-.222-.078-.43-.19-.618-.33-.106-.079-.206-.168-.306-.253-.101-.084-.151-.18-.922-2.358l-.088-.251c-.03-.087-.065-.174-.1-.263-.035-.09-.074-.193-.114-.287zM19.97 6.448c-.27-.444.008-.848.338-1.19.055-.057.113-.108.168-.166.112-.108.218-.245.337-.376.058-.066.112-.132.18-.193.277-.3.82-.577 1.18-.3.29.21.506.382.868.418.072.019.143.04.211.06.347.109.655.274.835.6.18.326.18.695.504.901.052.045.104.087.15.131.1.092.16.218.165.352.01.121.01.243 0 .364-.016.188-.112.287-.238.421-.053.06-.098.125-.153.182-.108.096-.225.183-.349.26-.093.068-.18.145-.267.217-.098.076-.203.144-.313.202-.036.02-.064.048-.102.064-.079.024-.16.037-.243.04-.093.004-.187.004-.28 0-.193.009-.385.004-.576-.016-.178-.028-.35-.083-.525-.123-.237-.054-.467-.121-.7-.182-.244-.047-.482-.12-.71-.216-.056-.028-.107-.065-.152-.109-.025-.031-.04-.069-.044-.108-.042-.12-.068-.247-.076-.374 0-.064-.012-.129-.017-.192.03-.216-.08-.351-.145-.523-.016-.047-.03-.093-.045-.144z"/>
                            <path fill="#FFF8C4" d="M15.55 8.454c-.05-.116.016-.25.026-.37.004-.1.028-.197.072-.286.055-.097.098-.2.13-.308.05-.127.125-.242.22-.34.081-.087.158-.18.229-.276.671-.867 1.925-1.83 2.96-1.01.115.063.23.128.335.193.559.324 1.119.652 1.762.84.81.222 1.032 1.557.286 2.1-.04.045-.067.098-.105.147-.056.07-.123.133-.18.203-.114.148-.24.294-.365.436-.161.183-.26.483-.48.605-.17.09-.356.144-.547.16-.325.033-.651.03-.977.03h-1.404c-.098-.005-.197-.003-.296.006-.063.01-.127.017-.191.02-.085 0-.159-.014-1.474-2.15z"/>
                            <path fill="#FFF" d="M5.694 16.317c0-1.898 16.84-3.437 37.616-3.437 20.775 0 37.616 1.539 37.616 3.437.002.02.002.04 0 .06h6.049c-1.324-2.818-20.362-5.052-43.66-5.052-23.296 0-42.336 2.234-43.66 5.052h6.05c-.005-.02-.01-.04-.011-.06z"/>
                            <path fill="#FFF076" d="M20.656 9.49c.044-.124.103-.242.176-.352.969-.74 1.765-1.458 2.091-2.693.05-.09.107-.178.17-.26.06-.085.128-.164.203-.236.088-.067.182-.127.28-.178.102-.052.208-.096.316-.132.356-.126.747-.115 1.095.032.095.05.185.108.27.173.409.448.91.803 1.47 1.04.134.064.271.118.41.181.42.076.819.247 1.163.5.114.084.22.176.32.275.355.365.657.78.62 1.31-.118.905-1.214.717-1.783 1.176-.38.303-.417.756-.591 1.13-.045.128-.09.253-.143.373-.157.353-.365.67-.745.84-.721.34-1.366-.265-1.901-.673-.119-.094-.246-.186-.37-.267-.114-.079-.236-.147-.363-.205-.103-.059-.207-.118-.313-.168-.106-.05-.216-.101-.329-.147-.125-.04-.253-.073-.382-.1-.744-.065-1.881-.33-1.722-1.308.012-.103.032-.204.058-.31z"/>
                            <path fill="#FAC032" d="M22.792 9.293c.018-.05.042-.099.073-.143.403-.296.735-.584.872-1.078.021-.036.044-.07.07-.105.025-.032.054-.063.085-.09.036-.028.076-.052.117-.071.04-.022.083-.04.127-.054.149-.05.312-.046.457.012.04.02.077.044.112.07.17.18.38.32.612.416l.17.073c.176.03.342.098.485.2.046.033.088.07.128.11.147.145.274.312.254.524-.047.365-.509.287-.743.469-.158.121-.174.303-.247.452-.019.052-.038.102-.06.149-.053.147-.165.268-.31.337-.3.135-.569-.106-.792-.27-.052-.038-.103-.074-.154-.107-.048-.031-.1-.059-.152-.082-.042-.024-.086-.046-.128-.067-.042-.02-.09-.041-.137-.06-.052-.015-.105-.028-.16-.038-.308-.027-.783-.133-.717-.525.018-.039.027-.08.038-.122z"/>
                            <path fill="#FFF076" d="M38.689 9.667c-.047-.172-.068-.35-.064-.528.009-.317.115-.624.304-.88.092-.128.2-.243.321-.344.09-.077.187-.146.29-.205.52-.344 1.23-.303 1.719-.67.562-.48.933-1.252 1.767-1.393.122-.031.246-.056.372-.073.505-.068 1.021.006 1.27.472.263.515.451 1.067.934 1.476.096.093.198.182.304.268.334.262.685.503 1.05.72.14.1.234.25.26.418.044.129.066.263.068.399.001.147-.02.294-.065.435-.263.957-1.2 1.51-2.033 2.028-.14.077-.287.137-.44.18-1.125.331-2.1-.478-2.96-1.066-.154-.073-.332-.079-.489-.014-.128.013-.255.027-.385.037-.259.027-.52.02-.777-.024-.45-.114-.861-.367-1.06-.77-.042-.06-.052-.201-.386-.466z"/>
                            <path fill="#FAC032" d="M41.533 9.088c-.016-.058-.023-.117-.022-.177.004-.105.04-.208.104-.293.03-.042.066-.08.105-.113.03-.026.062-.049.096-.069.173-.113.41-.102.572-.223.187-.16.314-.417.588-.464.041-.01.083-.019.124-.024.169-.024.34 0 .424.157.087.171.15.355.308.492.033.03.066.06.105.089.112.088.23.168.352.24.046.034.077.084.085.14.015.042.023.087.023.132.001.05-.006.099-.021.146-.087.318-.4.503-.677.675-.047.026-.096.047-.147.06-.374.11-.7-.16-.986-.354-.052-.024-.11-.024-.162 0l-.129.012c-.086.009-.173.006-.259-.008-.15-.03-.279-.124-.353-.257-.025-.066-.07-.122-.13-.161z"/>
                            <path fill="#FBFDE5" d="M28.536 10.98c.15-.748.834-.94 1.41-1.113.105-.054.207-.114.305-.18.492-.325.92-.77 1.458-1.035.162-.067.327-.121.495-.163.121-.027.244-.043.368-.048.124-.006.248.001.371.02.568.074 1.216.421 1.288 1.08.145 1.003.65 1.697 1.368 2.292.05.076.089.161.113.25.023.103.031.208.022.313-.022.174-.08.341-.168.49-.06.1-.13.192-.211.273-.099.132-.24.218-.397.24-1.01.154-1.873.27-2.522 1.35-.288.462-.972-.039-1.25-.448-.079-.1-.155-.209-.225-.32-.224-.333-.41-.696-.579-.974-.093-.102-.204-.184-.326-.24-.785.02-1.683-.48-1.514-1.473-.006-.106-.006-.207-.006-.315z"/>
                            <path fill="#FFF076" d="M11.307 13.365c-.05-.153-.083-.31-.098-.47-.013-.152-.009-.304.013-.454.011-.124.034-.247.067-.367.032-.119.072-.236.122-.35.286-.713 1.106-.964 1.612-1.468.508-.574.508-1.686 1.502-1.797.132-.02.265-.025.398-.016.276.022.546.088.797.197.086.037.17.077.255.122.207.095.364.31.597.345.121.033.253.067.378.105.125.038.242.082.371.13 1.785.376 2.37 2.348 1.241 3.61-.056.086-.146.12-.195.209-.258.447-.864.684-1.369.83-.318.112-.65.185-.99.216-.416.017-.836.012-1.77-.335-.187-.07-.395-.152-.637-.245-.236-.104-.488-.172-.747-.204-.132-.019-.267-.031-.404-.039s-.278-.012-.418-.015l-.725-.004z"/>
                            <path fill="#FFF7F7" d="M86.253 17.099h-5.192l-6.354 88.04c1.087-.399 2.172-.827 3.254-1.283L86.253 17.1zM1.099 17.099L9.4 104.02s1.155.454 3.245 1.119L6.296 17.099H1.1z"/>
                            <path fill="#F3D8D8" d="M11.221 104.021L2.918 17.1h-1.82L9.4 104.02s1.155.454 3.245 1.119l-.044-.619c-.9-.312-1.38-.5-1.38-.5zM76.13 104.021L84.433 17.1h1.821l-8.302 86.922s-1.155.454-3.244 1.119l.044-.619c.9-.312 1.38-.5 1.38-.5z"/>
                            <path fill="#FB3030" d="M73.224 17.099l-5.012 90.206c2.257-.614 4.52-1.338 6.777-2.188L81.202 17.1l-7.978-.002zM14.143 17.099H6.15l6.212 88.265c1.68.549 3.98 1.241 6.778 1.94L14.143 17.1z"/>
                            <path fill="#FFF7F7" d="M27.8 108.748l-3.38-91.65H14.088l5.059 89.862c2.515.622 5.427 1.248 8.653 1.788zM68.186 107.646l5.077-90.547h-10.32l-3.39 92.37c2.908-.452 5.79-1.06 8.633-1.823z"/>
                            <path fill="#FB3030" d="M38.624 110.191L37.526 17.1H24.19l3.383 91.793c3.373.563 7.089 1.032 11.05 1.3zM59.763 109.166l3.397-92.067H49.828l-1.1 93.092c3.696-.118 7.381-.461 11.035-1.025z"/>
                            <path fill="#FFF7F7" d="M48.375 110.137L49.449 17.1H37.181l1.072 92.853c3.369.236 6.747.297 10.122.185z"/>
                            <path fill="#FDF39C" d="M50.548 13.74c.512.018 1.07.077 1.346-.252.085-.11.148-.234.185-.366.16-.467.34-1.025.215-1.516-.154-.604-.695-.91-1.3-1-.177-.015-.34-.095-.453-.225-.435-.551-.49-1.173-1.157-1.58-.667-.407-1.983-.578-2.548.066-.153.173-.27.373-.435.535-.256.249-.523.21-.847.275-.646.132-.771.728-.979 1.233-.117.282-.262.665-.117.955.178.368.62.359.924.579.483.35.274.916.936 1.194.741.315 2.05.777 2.855.477.234-.085.432-.224.66-.315.232-.064.475-.085.715-.06z"/>
                            <ellipse cx="43.315" cy="16.738" fill="#EEC85E" rx="38.608" ry="4.691"/>
                            <path fill="#FDF39C" d="M27.822 14.473c-.02-.137-.026-.275-.02-.413.028-.708.37-1.468 1.166-1.462.125-.012.252-.019.38-.025l.307-.018c1.007.037 1.233-1.136 1.649-1.879.063-.09.137-.173.221-.243.08-.072.163-.138.251-.198.177-.115.363-.215.556-.298.11-.041.228-.057.344-.047.246-.016.494-.007.738.029.155.024.297.104.401.224.136.13.25.282.34.45.082.18.133.373.152.57.01.097.016.194.019.293-.022.185-.015.372.022.554.055.188.093.384.245.5.137.088.274.179.41.27.649.435 1.33.983 1.443 1.843.056.381-.069.767-.336 1.036-.082.088-.171.17-.266.244-.416.335-.653.548-.813 1.096-.244.836-.717 1.34-1.584 1.489-1.313.217-2.84-.234-3.888-1.054-.107-.083-.21-.171-.307-.265-.653-.648-1.13-1.46-1.383-2.359-.021-.102-.038-.215-.047-.337z"/>
                            <path fill="#FFF8C4" d="M22.772 12c.048-.157.116-.308.2-.45.08-.129.174-.248.28-.355.207-.22.471-.378.762-.453.145-.041.293-.073.442-.095.876-.05 1.555-.546 2.196-1.117.107-.1.229-.182.361-.245.646-.275 1.291-.066 1.812.343.106.083.208.173.303.268.13.223.287.427.47.609.09.09.182.174.279.256.073.074.151.142.234.204.081.064.168.118.254.18.587.365 1.222.937.996 1.66-.264.877-1.244 1.029-2.049 1.268-.107.044-.21.097-.309.158-.1.06-.194.132-.28.212-.378.381-.603.95-1.174 1.086-.133.04-.27.07-.408.09-.136.02-.273.032-.41.035-.161.005-.323-.004-.483-.026-.138-.02-.274-.053-.406-.098-.13-.046-.255-.104-.375-.172-.172-.038-.322-.23-.399-.343-.075-.152-.225-.267-.339-.419-.716-.685-1.995-1.143-1.98-2.253.003-.104.01-.215.023-.343z"/>
                            <path fill="#FAC032" d="M29.976 14.683c-.01-.057-.013-.115-.01-.172.014-.295.184-.612.582-.61.062 0 .126-.009.19-.011l.152-.008c.507.016.617-.473.825-.784.032-.037.069-.07.11-.1.04-.03.082-.058.127-.082.088-.048.18-.09.277-.124.055-.018.113-.024.17-.02.124-.007.247-.003.369.012.078.01.149.043.201.093.068.054.125.118.168.188.041.075.067.156.078.239 0 .039.007.08.008.121-.01.077-.007.156.012.232.015.08.06.152.126.209l.205.11c.324.18.664.41.721.765.03.16-.033.324-.168.437-.04.037-.081.071-.126.103-.208.14-.327.229-.406.457-.127.348-.359.56-.791.62-.689.076-1.385-.08-1.944-.437-.054-.035-.103-.072-.153-.11-.326-.27-.564-.609-.69-.984-.014-.047-.025-.096-.033-.144z"/>
                            <path fill="#FFF076" d="M23.028 14.737c.427-.884 1.504-.956 2.35-1.213.216-.046.417-.143.583-.283.159-.085.32-.17.479-.244.312-.157.66-.235 1.014-.228.144.01.286.041.42.094.347.114.578.33.808.586.193.238.26.531.327.814.031.14.071.277.12.411.084.14.177.275.28.403.104.132.217.264.332.398 1.214.757 1.291 2.331.04 3.121-.289.27-.6.526-.872.77-.129.114-.26.238-.392.358-.133.12-.269.236-.409.352-.544.44-1.245.664-1.958.627-.183-.011-.363-.057-.527-.135-.995-.465-1.704-2.052-2.379-2.908-.095-.17-.172-.348-.228-.532-.18-.641-.412-1.368-.15-2.002.044-.133.099-.263.162-.389zM5.205 17.784l.028.036h7.287c.318-.797.023-1.739-.82-2.277-.119-.136-.228-.272-.332-.408-.102-.131-.195-.269-.28-.412-.048-.138-.088-.279-.12-.422-.066-.29-.133-.59-.326-.835-.23-.262-.462-.488-.808-.6-.134-.054-.276-.086-.42-.097-.353-.008-.702.073-1.014.234-.165.075-.326.161-.485.249-.166.143-.366.243-.582.291-.846.263-1.917.338-2.35 1.242-.062.13-.115.265-.159.402-.261.645-.03 1.396.151 2.052.057.19.134.372.23.545z"/>
                            <path fill="#FAC032" d="M25.008 15.822c.157-.401.548-.434.856-.55.078-.02.15-.063.211-.125.058-.039.117-.077.176-.11.114-.071.241-.106.37-.103.052.005.104.019.153.042.117.055.218.147.293.267.063.113.104.242.12.376.01.063.024.125.042.186.032.064.067.124.106.182.038.06.079.125.121.18.441.345.47 1.058.014 1.417-.106.125-.218.239-.317.349l-.142.163c-.049.054-.098.106-.149.159-.198.2-.452.302-.712.285-.067-.005-.132-.026-.192-.061-.362-.212-.62-.934-.865-1.32-.035-.077-.062-.158-.082-.242-.067-.29-.15-.626-.055-.907.014-.064.032-.127.052-.188z"/>
                            <g fill="#000" opacity=".14">
                                <path d="M85.086.011l-5.09.075c-.35 2.094-16.976 3.779-37.44 3.779S5.463 2.18 5.117.085L.027.012l.156 1.778c4.31 2.696 21.567 4.657 42.373 4.657 20.77 0 38.047-1.998 42.394-4.681L85.086.01z" transform="translate(1.099 17.82)"/>
                            </g>
                            <path fill="#FBFDE5" d="M13.367 12.499c.002-.078.018-.154.047-.226.012-.1.052-.197.115-.278.145-.2.318-.379.513-.533.218-.163.46-.21.697-.325.107-.063.224-.11.345-.14.73-.102 1.505.08 2.133-.356.738-.47.96-1.305 1.652-1.806.13-.102.275-.186.428-.25.161-.07.333-.114.508-.133.158-.02.319-.017.476.008.18.029.354.08.52.153.812.363.739 1.306 1.071 1.958.092.132.222.235.373.295.16.077.345.14.501.212.157.073.311.166.46.257.727.451 1.243 1.059.85 1.92-.258.616-.517 1.304-.43 1.986.015.147.034.294.047.44.014.146.018.292.013.438-.047.234-.124.462-.23.677-.066.139-.143.272-.23.399-.513.767-1.38 1.323-2.35 1.347-.2-.005-.398-.029-.592-.071-.406-.089-.793-.247-1.143-.469-.812-.543-1.515-1.051-2.345-1.434-.276-.113-.63-.047-.92-.047-.173.017-.346.017-.518 0-.134-.036-.264-.083-.389-.14-.18-.077-.48-.177-1.602-3.882z"/>
                            <path fill="#FFF8C4" d="M6.312 17.57c-.11-.332-.165-.68-.162-1.032.002-.176.019-.351.05-.524.138-.762.612-1.404 1.334-1.603.192-.092.383-.182.567-.281.379-.189.731-.43 1.049-.715l.252-.181c.42-.306.864-.573 1.33-.796.099-.056.2-.107.304-.154.103-.047.21-.09.32-.13.278-.1.577-.13.87-.088.092.014.184.035.274.062.892.253 1.51 1.047 1.838 1.953.097.194.25.353.437.453l.233.092c.386.137.757.314 1.107.53.08.059.157.125.227.198.491.51.717 1.324.605 2.104-.008.111-.022.222-.041.332-.172.982-.793 1.852-1.783 2.106-.104.035-.211.06-.32.074-.238.03-.48.015-.712-.045-.113.007-.235.017-.355.017h-.914c-.322.017-.645.013-.967-.01-.265-.043-.526-.11-.78-.202-.45-.166-.91-.306-1.376-.419-.113-.024-.265-.048-.408-.082-.137-.029-.269-.08-.39-.15-.114-.078-.227-.162-.35-.243l-.286-.188c-.096-.062-.191-.125-.29-.186-.108-.04-.213-.09-.313-.15-.34-.117-.566-.492-.96-.498-.123-.073-.254-.154-.39-.244z"/>
                            <path fill="#FAC032" d="M9.886 16.188c-.344-.378.076-.958.455-1.122.076-.033.152-.065.226-.102.15-.068.291-.155.417-.258l.1-.066c.166-.11.343-.207.527-.288.04-.02.08-.04.124-.056l.123-.047c.461-.15.93.175 1.118.562.033.09.084.172.151.242.074.053.158.092.247.117.47.171.766.54.707 1.025-.14 1.126-1.44.936-2.277.8-.618-.101-1.144-.352-1.683-.638-.087-.044-.167-.1-.235-.169z"/>
                            <path fill="#FDF39C" d="M16.554 20.317c-.238 0-.468-.076-.657-.215-.093-.069-.174-.153-.238-.248-.166-.387-.17-.822-.011-1.212.037-.094.082-.185.134-.272.23-.368.6-.617.786-.974.368-.57.442-1.354.999-1.817.099-.086.21-.158.328-.214.737-.357 1.438.248 2.161.344.12 0 .238-.015.354-.042.16-.038.314-.095.46-.168.574-.278 1.234-.92 1.824-.313.443.535.811 1.141 1.547 1.24.125.05.246.11.36.179.905.546 1.323 1.618.814 2.644-.04.122-.086.241-.139.358-.222.464-.849.606-1.326.812-.115.041-.22.08-.337.111-.38.118-.777.177-1.176.177-.778 0-1.557 0-3.58-.265-.125-.006-.244-.017-.373-.028-.464-.051-.932-.076-1.4-.075-.179 0-.354-.01-.53-.022z"/>
                            <path fill="#FBFDE5" d="M29.306 20.628c-.508-.056-1.067-.079-1.285-.449-.066-.122-.108-.256-.125-.393-.086-.491-.176-1.078.024-1.552.247-.585.828-.812 1.441-.816.175.013.348-.043.48-.154.516-.49.667-1.106 1.39-1.418.722-.311 2.047-.292 2.506.437.117.196.207.414.35.6.214.286.485.286.795.4.616.227.648.84.774 1.378.069.3.155.705-.03.976-.233.341-.667.27-1.001.446-.532.28-.414.88-1.105 1.064-.782.207-2.145.481-2.894.063-.213-.12-.39-.292-.603-.412-.225-.102-.468-.16-.717-.17z"/>
                            <path fill="#FAC032" d="M18.854 19.065c-.102 0-.2-.038-.282-.107-.04-.035-.074-.077-.101-.124-.07-.194-.07-.412 0-.606.016-.046.035-.09.057-.132.1-.183.257-.308.336-.486.159-.286.19-.679.429-.91.042-.043.09-.08.141-.107.315-.18.617.125.926.17.051.001.102-.006.152-.019.067-.02.133-.048.195-.084.244-.139.529-.46.782-.157.19.263.35.57.664.62.053.026.105.056.154.09.403.27.555.843.35 1.318-.018.06-.038.12-.06.18-.095.231-.364.302-.568.405-.048.021-.096.04-.145.06-.163.058-.333.088-.505.088-.513.002-1.026-.042-1.534-.132-.054 0-.104-.008-.16-.015-.2-.025-.4-.038-.6-.037-.08-.005-.155-.009-.231-.015z"/>
                            <path fill="#FBFDE5" d="M58.095 10.98c-.15-.748-.833-.94-1.41-1.113-.105-.054-.207-.114-.306-.18-.49-.325-.919-.77-1.458-1.035-.162-.067-.327-.121-.495-.163-.121-.027-.244-.043-.368-.048-.124-.006-.248.001-.371.02-.568.074-1.216.421-1.289 1.08-.144 1.003-.648 1.697-1.367 2.292-.05.076-.089.161-.113.25-.023.103-.031.208-.022.313.023.174.08.341.168.49.06.1.13.192.211.273.099.132.24.218.397.24 1.01.154 1.873.27 2.522 1.35.288.462.972-.039 1.25-.448.079-.1.155-.209.225-.32.224-.333.408-.696.577-.974.094-.102.205-.183.328-.24.785.02 1.683-.48 1.514-1.473.012-.106.01-.207.007-.315z"/>
                            <path fill="#FFF076" d="M75.322 13.348c.052-.156.085-.316.1-.478.012-.152.008-.304-.014-.454-.011-.125-.033-.25-.067-.372-.031-.12-.072-.24-.121-.356-.192-.481-.62-.756-1.034-1.036-.103-.07-.206-.14-.305-.214-.57-.42-.728-1.147-1.271-1.657-.741-.656-1.834-.255-2.55.255-.122.031-.254.067-.38.106l-.185.061-.185.07c-.91.054-1.535.746-1.714 1.495-.025.079-.046.158-.063.24-.137.684.06 1.39.536 1.926.054.086.144.122.195.212.258.454.863.694 1.369.843.318.112.65.186.989.218.417.016.838.012 1.772-.34.187-.07.394-.154.637-.247.236-.105.488-.175.747-.207.131-.02.267-.03.405-.04.137-.01.276-.012.417-.015.225-.01.47-.01.722-.01z"/>
                            <path fill="#FDF39C" d="M59.53 14.473c.02-.137.026-.275.02-.413-.028-.708-.371-1.468-1.166-1.461-.125-.013-.252-.02-.38-.026l-.307-.018c-1.007.037-1.233-1.136-1.65-1.879-.062-.09-.136-.173-.22-.243-.08-.073-.164-.139-.253-.198-.176-.115-.362-.215-.556-.298-.11-.041-.226-.057-.343-.047-.246-.016-.493-.007-.737.029-.155.025-.297.104-.403.224-.135.13-.25.283-.338.45-.082.18-.133.373-.152.57-.01.097-.016.194-.019.293.022.185.015.372-.022.554-.055.188-.093.384-.245.5-.137.089-.275.179-.41.27-.65.435-1.33.983-1.443 1.843-.057.381.068.768.336 1.036.082.088.171.17.266.244.416.335.652.548.813 1.096.244.836.717 1.34 1.584 1.489 1.312.217 2.84-.234 3.887-1.054.109-.084.21-.173.308-.265.653-.648 1.13-1.46 1.383-2.359.021-.102.036-.215.047-.337z"/>
                            <path fill="#FFF8C4" d="M64.587 12c-.048-.157-.116-.308-.2-.45-.08-.129-.174-.248-.281-.355-.207-.22-.47-.378-.762-.453-.145-.041-.292-.073-.441-.095-.877-.05-1.555-.546-2.196-1.117-.107-.1-.23-.182-.361-.245-.646-.275-1.291-.066-1.812.343-.107.083-.208.173-.303.268-.131.224-.292.428-.477.609-.089.09-.183.174-.279.256-.073.074-.151.142-.235.204-.082.064-.167.118-.253.18-.587.365-1.222.937-.997 1.66.265.877 1.244 1.029 2.05 1.268.106.044.21.097.308.158.1.061.194.132.28.212.379.381.604.95 1.174 1.086.134.04.27.07.409.09.135.02.272.032.41.035.16.005.323-.004.483-.026.138-.02.273-.053.405-.098.13-.046.256-.103.375-.172.173-.038.323-.23.4-.343.074-.152.225-.267.339-.419.715-.685 1.995-1.143 1.98-2.253 0-.104 0-.215-.016-.343z"/>
                            <path fill="#FAC032" d="M57.376 14.683c.01-.057.013-.115.01-.172-.013-.295-.184-.612-.582-.61-.062 0-.126-.009-.19-.011l-.152-.008c-.507.015-.617-.473-.825-.784-.032-.037-.069-.07-.11-.1-.04-.03-.082-.057-.127-.082-.088-.048-.18-.09-.277-.124-.055-.018-.114-.024-.172-.02-.123-.007-.246-.003-.367.012-.078.01-.149.043-.201.093-.068.054-.125.118-.169.188-.04.075-.067.156-.077.239 0 .039-.007.08-.009.121.011.077.007.156-.011.232-.016.08-.06.152-.127.209l-.205.11c-.323.18-.664.41-.72.765-.03.16.033.323.168.437.039.037.081.071.126.103.208.14.327.229.405.457.126.348.36.56.79.62.69.076 1.386-.08 1.945-.437.054-.035.104-.072.154-.11.325-.27.563-.61.69-.984.014-.047.025-.096.033-.144z"/>
                            <path fill="#FFF076" d="M64.323 14.737c-.426-.884-1.504-.956-2.35-1.213-.216-.046-.416-.144-.582-.283-.16-.085-.321-.17-.48-.244-.312-.157-.661-.236-1.014-.228-.144.01-.286.042-.42.094-.346.114-.577.33-.807.586-.193.238-.26.531-.328.814-.03.14-.07.277-.12.411-.083.14-.176.275-.279.403-.104.132-.218.264-.333.398-1.214.757-1.29 2.331-.04 3.121.29.27.6.526.872.77.13.114.26.238.393.358s.268.236.409.352c.544.44 1.245.664 1.958.627.183-.011.362-.057.526-.135.994-.465 1.705-2.052 2.38-2.908.095-.17.171-.348.227-.532.181-.641.413-1.368.151-2.002-.044-.133-.099-.263-.163-.389z"/>
                            <path fill="#FAC032" d="M62.342 15.822c-.155-.401-.546-.434-.854-.55-.079-.02-.151-.063-.211-.125-.058-.039-.118-.077-.178-.11-.113-.071-.24-.106-.368-.103-.052.005-.104.019-.153.043-.117.054-.22.146-.294.266-.063.113-.103.242-.118.376-.012.063-.026.125-.044.186-.031.064-.066.125-.105.182-.038.06-.08.125-.122.18-.44.345-.469 1.058-.013 1.417.105.125.218.239.316.349.048.054.094.109.143.163.048.054.098.106.148.159.198.2.453.302.713.285.066-.005.132-.026.192-.061.36-.212.619-.934.865-1.32.034-.077.062-.158.082-.242.067-.29.15-.626.055-.907-.014-.064-.032-.127-.054-.188z"/>
                            <path fill="#FBFDE5" d="M73.985 12.499c-.002-.078-.018-.154-.048-.226-.013-.1-.053-.197-.115-.278-.146-.2-.318-.379-.513-.533-.219-.163-.46-.21-.697-.325-.108-.063-.224-.11-.345-.14-.73-.102-1.505.08-2.133-.356-.739-.47-.96-1.305-1.652-1.806-.131-.102-.275-.186-.428-.25-.162-.07-.333-.114-.509-.133-.158-.02-.318-.017-.476.008-.179.029-.353.08-.519.153-.813.363-.74 1.306-1.072 1.958-.092.132-.221.235-.372.295-.16.077-.345.14-.502.212-.156.073-.31.166-.46.257-.725.451-1.241 1.059-.848 1.92.258.616.517 1.304.43 1.986-.016.147-.034.294-.047.44-.014.146-.019.292-.014.438.048.234.125.462.23.677.067.139.144.272.23.399.514.767 1.38 1.323 2.35 1.347.2-.005.398-.029.593-.071.406-.089.793-.247 1.142-.469.813-.543 1.515-1.051 2.346-1.434.275-.113.63-.047.92-.047.172.017.345.017.517 0 .134-.036.264-.083.39-.14.18-.077.478-.177 1.602-3.882z"/>
                            <path fill="#FFF8C4" d="M81.04 17.57c.11-.332.164-.68.162-1.032-.002-.176-.019-.351-.05-.524-.139-.762-.612-1.404-1.335-1.603-.191-.092-.383-.182-.566-.281-.379-.189-.732-.43-1.049-.715l-.253-.181c-.419-.306-.863-.573-1.328-.796-.1-.056-.202-.107-.305-.154-.103-.047-.21-.091-.32-.13-.278-.1-.577-.13-.87-.088-.092.014-.184.035-.275.062-.892.253-1.51 1.047-1.838 1.953-.096.194-.249.353-.436.453l-.233.092c-.386.137-.757.314-1.107.53-.08.059-.157.125-.227.198-.491.51-.718 1.324-.604 2.104.007.111.021.222.04.332.173.982.793 1.852 1.783 2.106.104.035.211.06.32.074.238.03.48.015.712-.045.113.007.235.017.355.017h.914c.322.017.645.013.967-.01.265-.043.525-.11.778-.202.452-.166.911-.306 1.378-.419.113-.024.265-.048.407-.082.138-.029.27-.08.391-.15.114-.078.227-.162.35-.243l.286-.188c.095-.062.191-.125.29-.186.108-.04.212-.09.312-.15.34-.117.567-.492.96-.498.123-.073.255-.154.39-.244z"/>
                            <path fill="#FAC032" d="M77.466 16.188c.344-.378-.078-.958-.456-1.122-.076-.033-.152-.065-.227-.102-.15-.068-.29-.155-.417-.258l-.1-.066c-.166-.11-.343-.207-.528-.288-.04-.02-.08-.04-.124-.056-.043-.016-.084-.033-.124-.047-.461-.15-.93.175-1.113.562-.033.09-.084.172-.15.242-.075.053-.16.092-.248.117-.472.171-.767.54-.708 1.025.14 1.126 1.443.936 2.28.8.619-.101 1.146-.352 1.684-.638.086-.044.164-.101.231-.169z"/>
                            <path fill="#FDF39C" d="M70.076 20.317c.237 0 .468-.076.657-.215.093-.069.174-.153.238-.248.166-.387.17-.822.011-1.212-.038-.094-.083-.185-.134-.272-.23-.368-.601-.617-.786-.974-.369-.57-.442-1.354-1-1.817-.099-.086-.21-.158-.328-.214-.738-.357-1.439.248-2.162.344-.12 0-.24-.015-.355-.042-.158-.039-.31-.095-.454-.168-.575-.278-1.235-.92-1.826-.313-.442.535-.81 1.141-1.547 1.24-.125.05-.246.11-.361.179-.904.546-1.322 1.618-.815 2.644.04.122.088.24.14.358.222.464.85.606 1.328.812.114.041.22.08.335.111.38.118.778.177 1.178.177.779 0 1.558 0 3.582-.265.124-.006.243-.017.372-.028.465-.051.933-.076 1.4-.075.175 0 .351-.01.527-.022z"/>
                            <path fill="#FBFDE5" d="M58.044 20.628c.509-.056 1.068-.079 1.286-.449.067-.122.11-.255.127-.393.085-.491.174-1.078-.025-1.552-.247-.585-.828-.812-1.441-.816-.175.013-.348-.043-.48-.154-.516-.49-.667-1.106-1.39-1.418-.722-.311-2.048-.292-2.506.437-.117.196-.207.414-.35.6-.214.286-.486.286-.795.4-.617.227-.648.84-.774 1.378-.07.3-.156.705.029.976.234.341.667.27 1.002.446.532.28.412.88 1.104 1.064.782.207 2.145.481 2.895.063.213-.12.39-.292.603-.412.225-.102.468-.16.715-.17z"/>
                            <path fill="#FAC032" d="M67.776 19.065c.102 0 .2-.038.282-.107.04-.035.074-.077.101-.124.07-.194.07-.412 0-.606-.015-.046-.035-.09-.057-.132-.099-.183-.258-.308-.336-.486-.159-.286-.19-.679-.429-.91-.042-.043-.09-.079-.14-.107-.316-.18-.618.125-.927.17-.051.001-.102-.006-.152-.019-.067-.02-.133-.048-.195-.084-.244-.139-.529-.46-.782-.157-.19.263-.35.57-.663.62-.054.026-.105.056-.155.09-.403.27-.555.843-.35 1.318.018.06.038.12.06.18.095.231.364.302.568.405.048.021.095.04.145.06.163.058.333.088.505.088.513.002 1.026-.042 1.534-.132.054 0 .104-.008.16-.015.2-.025.4-.038.6-.037.08-.005.156-.009.231-.015z"/>
                            <path fill="#FFF8C4" d="M42.233 11.613c-.048-.758-.754-1.057-1.341-1.314-.105-.069-.205-.144-.301-.224-.48-.399-.87-.905-1.41-1.25-.163-.092-.333-.172-.507-.24-.126-.045-.256-.08-.388-.106-.132-.025-.267-.038-.402-.04-.622-.016-1.371.223-1.548.855-.307.963-.954 1.565-1.817 2.03-.064.068-.115.146-.153.23-.04.097-.065.199-.071.303-.003.175.034.349.107.509.048.108.11.21.184.303.087.144.227.25.391.296 1.06.313 1.972.563 2.505 1.729.243.5 1.05.119 1.41-.24.101-.085.198-.18.294-.277.284-.293.543-.619.767-.866.116-.087.248-.151.39-.188.843.145 1.886-.205 1.85-1.207l.04-.303z"/>
                            <path fill="#FFF076" d="M58.606 16.121c.07-.147.125-.301.163-.46.035-.15.053-.305.056-.46.009-.127.007-.255-.006-.382-.012-.126-.033-.25-.063-.374-.157-.766-.878-1.138-1.27-1.724-.382-.655-.212-1.787-1.117-2.04-.119-.038-.242-.063-.366-.072-.259-.018-.519.012-.767.088-.085.024-.17.054-.254.086-.206.068-.384.265-.605.268-.122.014-.245.032-.366.053-.122.02-.243.048-.364.08-1.705.13-2.55 2.053-1.697 3.495.038.094.114.141.15.239.17.495.694.818 1.136 1.034.277.158.574.278.883.359.383.076.773.13 1.69-.091.184-.044.388-.099.627-.159.234-.071.477-.105.722-.1.125 0 .252.006.38.016.129.01.258.027.39.044.217.031.442.067.678.1z"/>
                            <path fill="#FBFDE5" d="M39.43 18.493c.128-.018.253-.048.374-.09.622-.212 1.204-.726.983-1.454-.024-.113-.052-.236-.08-.355-.024-.095-.048-.19-.07-.286-.308-.913.68-1.431 1.22-2.01.064-.082.116-.171.155-.266.042-.092.077-.187.106-.283.054-.193.092-.39.113-.588.007-.112-.01-.224-.052-.328-.053-.23-.128-.455-.226-.67-.065-.135-.174-.244-.31-.308-.31-.195-.685-.26-1.043-.182-.09.016-.176.036-.266.06-.158.069-.326.11-.498.125-.182 0-.367.016-.513-.091-.113-.104-.233-.206-.351-.307-.566-.48-1.244-.96-2.036-.837-.355.05-.664.265-.831.58-.057.1-.106.204-.147.31-.185.47-.31.744-.751 1.034-.679.444-1.001 1.014-.892 1.844.166 1.26.986 2.543 2.002 3.293.104.077.212.146.32.211.754.429 1.609.652 2.477.647.1-.01.204-.026.317-.049z"/>
                            <path fill="#FFF8C4" d="M48.006 13.377c-.024-.16-.069-.317-.132-.466-.06-.138-.134-.27-.224-.39-.173-.245-.412-.437-.69-.554-.137-.06-.28-.112-.424-.156-.863-.179-1.463-.76-2.014-1.41-.092-.113-.2-.21-.322-.291-.6-.363-1.267-.255-1.85.064-.118.064-.231.136-.34.215-.163.197-.353.372-.562.52-.103.074-.209.142-.316.208-.082.06-.169.116-.26.164-.09.049-.183.093-.279.137-.63.268-1.351.727-1.235 1.463.132.889 1.082 1.182 1.846 1.534.099.059.194.125.284.198.09.074.173.158.247.249.317.424.457 1.012 1.005 1.225.126.06.257.11.391.149.133.04.267.072.403.095.16.029.321.044.483.046.28.003.556-.047.816-.147.176-.01.353-.173.446-.272.097-.137.264-.226.398-.356.813-.56 2.153-.815 2.303-1.897.012-.094.02-.203.026-.328z"/>
                            <path fill="#FFF076" d="M47.15 16.038c-.277-.923-1.31-1.146-2.09-1.515-.202-.076-.382-.2-.522-.358-.14-.106-.284-.212-.432-.307-.278-.197-.605-.322-.948-.364-.141-.01-.284 0-.422.033-.352.059-.61.241-.874.459-.223.206-.333.482-.441.75-.051.132-.11.26-.178.385-.102.125-.213.243-.332.354-.117.112-.251.225-.385.338-1.292.563-1.61 2.096-.518 3.041.235.305.5.599.726.875.107.135.215.27.325.404.11.134.223.27.342.402.46.506 1.105.824 1.802.889.179.014.36-.005.53-.059 1.035-.314 1.97-1.77 2.754-2.506.118-.152.22-.316.303-.488.274-.6.61-1.283.454-1.935-.021-.135-.053-.268-.094-.398z"/>
                            <path fill="#FAC032" d="M45.059 16.812c-.13-.419-.596-.52-.952-.687-.092-.035-.173-.091-.236-.164-.064-.047-.13-.095-.197-.139-.126-.089-.274-.146-.43-.165-.065-.005-.13 0-.193.015-.15.032-.288.104-.396.208-.092.099-.16.215-.2.341-.025.06-.052.118-.082.175-.046.057-.096.11-.15.16-.056.053-.115.105-.176.156-.587.259-.732.952-.235 1.382.108.14.227.273.33.398l.147.183c.05.062.102.124.156.184.21.23.502.373.818.402.082.007.164-.002.242-.026.47-.142.894-.804 1.251-1.138.054-.07.1-.144.138-.222.13-.273.277-.582.207-.878-.01-.063-.025-.124-.042-.185z"/>
                            <path fill="#FBFDE5" d="M56.661 15.71c.009-.078.004-.156-.013-.231.002-.104-.023-.206-.072-.297-.114-.223-.258-.43-.43-.613-.19-.2-.423-.282-.643-.433-.098-.08-.208-.145-.325-.193-.71-.212-1.504-.145-2.068-.678-.661-.585-.754-1.46-1.365-2.072-.114-.122-.244-.229-.386-.317-.151-.093-.315-.163-.486-.209-.154-.044-.314-.065-.475-.063-.182.002-.364.028-.54.076-.863.244-.935 1.205-1.365 1.814-.112.119-.256.203-.416.24-.17.054-.362.091-.532.14-.17.048-.334.114-.493.19-.79.345-1.396.88-1.138 1.807.163.66.314 1.394.123 2.072-.038.146-.078.291-.115.437-.036.144-.063.29-.081.439.012.244.055.485.128.719.044.149.099.295.163.436.394.848 1.169 1.54 2.132 1.709.199.025.4.03.6.016.417-.028.826-.13 1.207-.3.892-.427 1.668-.833 2.554-1.096.29-.069.632.047.916.09.3.105.627.102.926-.008.196-.054.51-.113 2.194-3.676z"/>
                            <path fill="#FFF8C4" d="M62.824 21.38c.157-.314.26-.655.307-1.007.025-.177.034-.355.027-.533-.027-.787-.4-1.505-1.085-1.818-.176-.12-.351-.239-.522-.371-.346-.248-.66-.545-.93-.881l-.226-.222c-.37-.373-.77-.71-1.196-1.007-.09-.07-.182-.139-.278-.203-.096-.064-.195-.12-.296-.179-.261-.145-.551-.223-.846-.225-.094-.001-.187.005-.28.019-.915.12-1.64.81-2.092 1.669-.124.18-.297.314-.496.385l-.243.056c-.4.077-.791.196-1.168.358-.088.047-.172.101-.252.163-.558.434-.896 1.214-.903 2.014-.009.113-.011.226-.008.339.03 1.01.512 1.98 1.456 2.391.098.05.2.09.305.12.23.067.47.09.708.066.113.026.226.054.347.072.3.046.6.096.903.144.316.068.635.115.956.142.265 0 .53-.027.79-.079.47-.095.942-.163 1.418-.204.12 0 .269 0 .414-.018.14-.006.277-.036.407-.089.127-.06.253-.12.38-.187l.308-.144.313-.141c.112-.023.223-.057.33-.1.357-.061.627-.406 1.016-.35.148-.049.29-.11.436-.18zM33.013 20.457c-.11-.332-.164-.681-.162-1.032.002-.176.019-.351.05-.524.138-.762.612-1.405 1.334-1.604.192-.091.383-.183.567-.28.379-.19.731-.43 1.049-.715l.252-.182c.42-.306.864-.572 1.33-.796.099-.055.2-.107.304-.155.103-.048.21-.09.32-.128.278-.101.577-.131.87-.088.092.014.184.035.274.062.892.253 1.51 1.045 1.838 1.952.097.195.25.354.437.454l.233.092c.386.136.757.314 1.107.53.08.059.157.125.227.198.491.51.717 1.324.605 2.104-.008.111-.022.222-.041.331-.172.981-.793 1.853-1.783 2.107-.104.035-.211.06-.32.074-.238.03-.48.015-.712-.045-.113.007-.235.017-.355.017h-.914c-.322.017-.645.013-.967-.01-.265-.043-.526-.11-.78-.202-.45-.166-.91-.306-1.376-.419-.119-.024-.265-.048-.408-.082-.137-.029-.269-.08-.39-.15-.114-.08-.227-.162-.35-.243l-.286-.188c-.096-.062-.191-.125-.29-.186-.108-.04-.213-.09-.313-.15-.34-.117-.566-.492-.96-.498-.122-.073-.254-.154-.39-.244z"/>
                            <path fill="#FAC032" d="M35.865 19.074c-.344-.377.077-.957.457-1.121.075-.033.152-.066.226-.102.15-.069.29-.156.417-.259l.1-.065c.166-.111.343-.208.528-.288.04-.021.082-.04.124-.056.04-.018.084-.033.124-.047.461-.15.93.174 1.113.56.032.09.084.173.151.244.074.052.158.092.247.117.47.17.767.54.708 1.025-.14 1.124-1.442.936-2.28.799-.618-.1-1.145-.351-1.685-.638-.086-.044-.164-.101-.23-.17z"/>
                            <path fill="#FDF39C" d="M51.834 22.138c.24.036.485-.008.698-.124.105-.057.2-.132.28-.222.228-.38.301-.832.202-1.264-.023-.104-.054-.206-.092-.305-.176-.419-.51-.736-.64-1.136-.281-.652-.234-1.484-.722-2.051-.086-.105-.186-.197-.297-.275-.689-.485-1.492.041-2.238.03-.12-.019-.24-.051-.352-.098-.153-.065-.299-.147-.433-.245-.531-.376-1.101-1.148-1.792-.605-.532.491-1 1.067-1.76 1.055-.134.033-.266.077-.393.132-1 .432-1.59 1.489-1.239 2.637.021.133.05.265.085.395.15.519.76.763 1.21 1.056.105.06.21.117.322.173.365.182.757.304 1.16.364.786.117 1.573.234 3.659.27.125.013.247.02.379.028.477.017.954.063 1.426.136.18.013.359.03.537.05z"/>
                            <path fill="#FAC032" d="M50.367 20.701c.103.016.208-.003.3-.054.045-.026.085-.06.12-.099.098-.168.13-.37.087-.562-.01-.046-.023-.091-.04-.135-.075-.186-.218-.327-.275-.505-.119-.29-.1-.659-.31-.911-.037-.047-.08-.089-.127-.124-.296-.215-.641.019-.955.014-.052-.009-.102-.023-.15-.043-.066-.03-.128-.066-.186-.11-.228-.167-.477-.51-.77-.268-.228.218-.429.474-.755.47-.057.015-.113.034-.167.058-.447.186-.68.697-.533 1.172.01.06.021.118.036.175.065.232.327.34.52.468.045.027.09.051.138.076.157.081.325.136.498.162.52.085 1.045.126 1.57.124.054 0 .107.008.163.012.205.008.41.028.613.06.07.01.147.01.223.02z"/>
                            <path fill="#FFF" d="M80.861 17.099c-.35 1.901-17.023 3.433-37.546 3.433S6.115 19 5.769 17.099h-6.04c-.048.1-.073.208-.074.318 0 3.012 19.547 5.455 43.66 5.455 24.113 0 43.66-2.441 43.66-5.455-.001-.11-.027-.218-.075-.318h-6.039z"/>
                            <path fill="#FFF8C4" d="M29.986 6.433c-.03-.204-.029-.41.007-.613.112-.457.586-.795.89-1.14.058-.067.112-.133.18-.194.563-.616.968-.365 1.576-.035.514.28 1.057.232 1.4.773.271.427.563.774.856 1.173.387.526-.245 1.199-.657 1.504-.411.305-.675.56-1.226.536-.663-.026-2.169-.117-2.614-.682-.191-.24-.36-.828-.412-1.322z"/>
                            <path fill="#FAC032" d="M30.7 6.715c-.018-.102-.018-.205 0-.307.066-.229.336-.398.51-.57.033-.034.067-.067.103-.098.325-.308.554-.182.9-.017.293.14.604.117.8.387.156.211.322.387.491.586.221.263-.141.6-.375.752-.233.151-.383.28-.702.268-.374-.013-1.241-.059-1.498-.341-.104-.12-.198-.414-.229-.66z"/>
                            <path fill="#EEE" d="M78.536 103.03c-22.268 8.028-46.73 8.028-68.998 0-.426-.16-.906.042-1.08.455l-.097.25c-.073.205-.059.43.038.627.097.196.27.346.48.417 22.694 8.179 47.622 8.179 70.316 0 .21-.071.383-.221.48-.417.097-.196.11-.422.037-.627l-.097-.25c-.173-.414-.653-.616-1.08-.454z"/>
                        </g>
                        <g fill-rule="nonzero">
                            <path fill="#FB3030" d="M16.975 17.82L14.846 17.82 14.846 6.463 5.428 3.287 6.096 1.222 16.975 4.889z" transform="translate(21.994 33.196)"/>
                            <path fill="#BB1B1B" d="M15.283 17.407L15.283 5.97 5.596 2.666 5.428 3.187 14.846 6.384 14.846 17.82 16.975 17.82 16.975 17.407z" transform="translate(21.994 33.196)"/>
                            <g fill="#F66" opacity=".8">
                                <path d="M0.268 0.018L0.031 0.753 10.778 4.393 10.778 17.212 11.485 17.212 11.485 3.816z" transform="translate(21.994 33.196) translate(6.15 .5)"/>
                            </g>
                            <path fill="#FFF" d="M20.634 18.531L34.294 16.964 33.539 14.934 20.634 14.934 20.532 14.934 7.627 14.934 6.872 16.964 20.532 18.531 20.532 18.542 20.583 18.536 20.634 18.542z" transform="translate(21.994 33.196)"/>
                            <path fill="#F1F1F1" d="M7.186 16.377L6.872 17.132 20.532 18.532 20.532 18.542 20.583 18.537 20.634 18.542 20.634 18.532 34.294 17.132 33.98 16.377z" transform="translate(21.994 33.196)"/>
                            <path fill="#FB3030" d="M35.912 71.222L39.346 20.707 1.82 20.707 5.255 71.222z" transform="translate(21.994 33.196)"/>
                            <g fill="#C31E1E" opacity=".65">
                                <path d="M34.694 50.405L38.182 0.068 0.06 0.068 3.55 50.405z" transform="translate(21.994 33.196) translate(1.82 20.707)"/>
                            </g>
                            <path fill="#FB5656" d="M36.283 71.222L39.346 25.758 2.542 25.758 5.605 71.222z" transform="translate(21.994 33.196)"/>
                            <g fill="#FB3030" opacity=".7">
                                <path d="M34.328 45.352L37.436 0.079 0.086 0.079 3.194 45.352z" transform="translate(21.994 33.196) translate(1.82 25.758)"/>
                            </g>
                            <path fill="#FB3030" d="M14.088 71.222L13.01 25.758 2.542 25.758 5.578 71.222zM36.31 71.222L39.346 25.758 28.878 25.758 27.8 71.222z" transform="translate(21.994 33.196)"/>
                            <g fill="#C31E1E" opacity=".78">
                                <path d="M4.92 50.405L1.842.068.06.068 3.55 50.405zM34.694 50.405L38.182.068 36.402.068 33.324 50.405z" transform="translate(21.994 33.196) translate(1.82 20.707)"/>
                            </g>
                            <path fill="#E9E9E9" d="M1.82 19.693s16.28-2.59 38.248 0l-5.83 1.577-23.767.159-8.65-1.736z" transform="translate(21.994 33.196)"/>
                            <path fill="#F1F1F1" d="M40.79 24.315s-.139-5.696-3.182-7.216H3.56C.515 18.619.377 24.315.377 24.315l20.206-.087 20.206.087z" transform="translate(21.994 33.196)"/>
                            <path fill="#FFF" d="M37.903 24.315s-.117-5.696-2.674-7.216H6.659c-2.558 1.52-2.674 7.216-2.674 7.216l16.957-.087 16.96.087z" transform="translate(21.994 33.196)"/>
                            <g fill="#FFF" opacity=".24">
                                <path d="M5.003.081H1.454C1.046.09.66.254.39.537c-.27.282-.4.657-.357 1.031.056.69.673 1.226 1.422 1.236h3.55c.799-.02 1.436-.624 1.436-1.361C6.44.705 5.803.102 5.003.08z" transform="translate(21.994 33.196) translate(9.037 27.923)"/>
                            </g>
                            <g fill="#FFF" opacity=".24">
                                <path d="M1.597.144C1.21-.08.745.088.454.426-.128 1.2-.07 2.449.565 3.123c.555.607 1.513.404 2.009-.27.232-.373.262-.809.232-1.244C2.723.897 2.257.156 1.596.144z" transform="translate(21.994 33.196) translate(5.428 27.202)"/>
                            </g>
                            <path fill="#FFF" d="M3.915 19.264c.222-.506.487-.99.792-1.444H3.445c-.334.457-.636.94-.903 1.444h1.373zM2.661 19.264c-.441.905-.726 1.882-.84 2.886h1.344c.178-.987.453-1.954.82-2.886H2.661z" transform="translate(21.994 33.196)"/>
                        </g>
                    </g>
                </g>
            </g>
        </g>
    </g>
</svg>
